<?xml version="1.0" encoding="UTF-8"?>
<svg width="30px" height="30px" viewBox="0 0 30 30" version="1.1" xmlns="http://www.w3.org/2000/svg" xmlns:xlink="http://www.w3.org/1999/xlink">
    <!-- Generator: Sketch 49.3 (51167) - http://www.bohemiancoding.com/sketch -->
    <title>ic-apps</title>
    <desc>Created with Sketch.</desc>
    <defs></defs>
    <g id="Symbols" stroke="none" stroke-width="1" fill="none" fill-rule="evenodd">
        <g id="Home---color---black" transform="translate(-241.000000, -67.000000)" fill-rule="nonzero" stroke="#FFFFFF">
            <path d="M241.554706,75 L248.554706,75 L248.554706,68 L241.554706,68 L241.554706,75 Z M252.054706,96 L259.054706,96 L259.054706,89 L252.054706,89 L252.054706,96 Z M241.554706,96 L248.554706,96 L248.554706,89 L241.554706,89 L241.554706,96 Z M241.554706,85.5 L248.554706,85.5 L248.554706,78.5 L241.554706,78.5 L241.554706,85.5 Z M252.054706,85.5 L259.054706,85.5 L259.054706,78.5 L252.054706,78.5 L252.054706,85.5 Z M262.554706,68 L262.554706,75 L269.554706,75 L269.554706,68 L262.554706,68 Z M252.054706,75 L259.054706,75 L259.054706,68 L252.054706,68 L252.054706,75 Z M262.554706,85.5 L269.554706,85.5 L269.554706,78.5 L262.554706,78.5 L262.554706,85.5 Z M262.554706,96 L269.554706,96 L269.554706,89 L262.554706,89 L262.554706,96 Z" id="ic-apps"></path>
        </g>
    </g>
</svg>