<?xml version="1.0" encoding="UTF-8"?>
<svg width="28px" height="30px" viewBox="0 0 28 30" version="1.1" xmlns="http://www.w3.org/2000/svg" xmlns:xlink="http://www.w3.org/1999/xlink">
    <!-- Generator: Sketch 49.3 (51167) - http://www.bohemiancoding.com/sketch -->
    <title>ic-date</title>
    <desc>Created with Sketch.</desc>
    <defs></defs>
    <g id="Symbols" stroke="none" stroke-width="1" fill="none" fill-rule="evenodd">
        <g id="Home---color---black" transform="translate(-460.000000, -67.000000)" stroke="#FFFFFF">
            <path d="M460.859284,82.6548353 L466.123234,77.0750489 C466.881246,76.2749246 467.48484,75.5414883 467.934032,74.874718 C468.383225,74.2079477 468.607818,73.5587338 468.607818,72.9270567 C468.607818,72.421715 468.474466,72.0146403 468.207758,71.7058204 C467.94105,71.3970005 467.540993,71.2425929 467.007577,71.2425929 C466.474161,71.2425929 466.042521,71.4250746 465.712646,71.7900436 C465.38277,72.1550126 465.168705,72.7866802 465.070444,73.6850654 L461.154065,73.6850654 C461.224252,71.8040714 461.796262,70.3863285 462.870113,69.4317943 C463.943964,68.47726 465.39329,68 467.218135,68 C468.144595,68 468.958744,68.119315 469.660608,68.3579486 C470.362471,68.5965821 470.952028,68.926453 471.429295,69.3475711 C471.892525,69.7686891 472.24696,70.270514 472.492613,70.8530606 C472.738265,71.4356073 472.861089,72.0707841 472.861089,72.7586103 C472.861089,73.2779893 472.790904,73.765777 472.650531,74.2219883 C472.510158,74.6781995 472.320658,75.1168576 472.082024,75.5379756 C471.829354,75.973131 471.527557,76.3907334 471.176625,76.7907956 C470.825693,77.1908578 470.439674,77.5944232 470.018556,78.001504 L467.912976,80.0439164 L472.966368,80.0439164 L472.966368,83.2654535 L460.859284,83.2654535 L460.859284,82.6548353 Z M481.199185,83.518123 C479.99198,83.518123 478.970784,83.3356413 478.135566,82.9706723 C477.300349,82.6057033 476.616042,82.0933507 476.082626,81.433599 C475.54921,80.7878847 475.163191,80.0158465 474.924557,79.1174613 C474.685924,78.2190761 474.566609,77.2294635 474.566609,76.1485938 L474.566609,75.7485336 C474.566609,74.5272912 474.738563,73.43591 475.082476,72.474357 C475.426389,71.5128041 475.900139,70.6951455 476.503742,70.0213566 C477.107345,69.361605 477.823235,68.8597801 478.651433,68.515867 C479.479632,68.171954 480.370985,68 481.32552,68 C483.024029,68 484.361059,68.3684728 485.336649,69.1054294 C486.312239,69.842386 486.877231,70.9548229 487.031641,72.4427733 L483.073151,72.4427733 C483.002965,72.0778044 482.852066,71.7760076 482.620451,71.537374 C482.388836,71.2987405 482.006327,71.1794255 481.47291,71.1794255 C480.644711,71.1794255 480.009535,71.5233334 479.567361,72.2111596 C479.125187,72.8989857 478.883047,73.8815798 478.840936,75.1589713 C479.17783,74.6395923 479.616488,74.2184806 480.156923,73.8956234 C480.697358,73.5727662 481.430794,73.4113401 482.357254,73.4113401 C483.04508,73.4113401 483.690785,73.5131087 484.294387,73.7166491 C484.89799,73.9201895 485.424379,74.2254955 485.873572,74.6325763 C486.322765,75.0396571 486.68071,75.5449912 486.947418,76.1485938 C487.214126,76.7521963 487.347478,77.4470307 487.347478,78.2331178 C487.347478,79.0332421 487.207107,79.7561506 486.926362,80.4018649 C486.645617,81.0475793 486.24556,81.6020431 485.726181,82.065273 C485.192765,82.5285028 484.543551,82.8864478 483.77852,83.1391187 C483.013489,83.3917895 482.153719,83.518123 481.199185,83.518123 Z M481.157073,80.4650323 C481.760676,80.4650323 482.244954,80.261495 482.609923,79.8544142 C482.974892,79.4473334 483.157374,78.9209437 483.157374,78.2752294 C483.157374,77.6435523 482.981911,77.1241811 482.630979,76.7171003 C482.280047,76.3100195 481.78875,76.1064822 481.157073,76.1064822 C480.525396,76.1064822 480.027081,76.3100195 479.662112,76.7171003 C479.297143,77.1241811 479.114661,77.6295152 479.114661,78.2331178 C479.114661,78.9069067 479.297143,79.4473334 479.662112,79.8544142 C480.027081,80.261495 480.525396,80.4650323 481.157073,80.4650323 Z M462.2237,96 C461.916752,96 461.679057,95.9794123 461.51061,95.9382363 C461.342163,95.8970603 461.205536,95.8465269 461.100724,95.7866346 L461.100724,94.9780919 C461.250455,95.0379843 461.405798,95.0903893 461.566759,95.1353086 C461.72772,95.1802278 461.927982,95.2026871 462.167551,95.2026871 C462.571824,95.2026871 462.889998,95.0829042 463.122081,94.8433348 C463.354163,94.6037655 463.470203,94.214471 463.470203,93.6754399 L463.470203,87.8696546 L464.447192,87.8696546 L464.447192,93.720359 C464.447192,94.1246323 464.389172,94.4690081 464.273131,94.7534968 C464.157089,95.0379854 463.998003,95.273808 463.795866,95.4609716 C463.593729,95.6481352 463.357907,95.7847625 463.088391,95.8708578 C462.818876,95.956953 462.530648,96 462.2237,96 Z M471.965516,96 C471.673541,96 471.402157,95.9588246 471.151358,95.8764727 C470.900559,95.7941207 470.685324,95.6612365 470.505647,95.4778162 C470.32597,95.2943959 470.183728,95.0604449 470.078916,94.7759563 C469.974105,94.4914676 469.9217,94.1470918 469.9217,93.7428185 L469.9217,90.0257683 L470.85377,90.0257683 L470.85377,93.6978994 C470.85377,94.2144709 470.964194,94.5925357 471.185047,94.8321051 C471.4059,95.0716745 471.748405,95.1914574 472.21257,95.1914574 C472.422194,95.1914574 472.624327,95.1577684 472.818977,95.0903895 C473.013628,95.0230106 473.185815,94.9219438 473.335546,94.787186 C473.485277,94.6524283 473.60506,94.4839836 473.694899,94.2818469 C473.784737,94.0797102 473.829656,93.8476309 473.829656,93.5856018 L473.829656,90.0257683 L474.761726,90.0257683 L474.761726,95.8989322 L473.829656,95.8989322 L473.829656,94.9668622 C473.694898,95.2438643 473.468433,95.4853017 473.150255,95.6911816 C472.832077,95.8970616 472.437168,96 471.965516,96 Z M480.292382,90.0257683 L481.224452,90.0257683 L481.224452,90.9578383 C481.35921,90.6808362 481.585674,90.4393988 481.903852,90.2335188 C482.22203,90.0276389 482.624426,89.9247005 483.111051,89.9247005 C483.410513,89.9247005 483.687511,89.9677474 483.942054,90.0538427 C484.196596,90.1399379 484.415574,90.2784369 484.598994,90.4693438 C484.782415,90.6602506 484.924657,90.9054312 485.025725,91.204893 C485.126794,91.5043547 485.177327,91.8674466 485.177327,92.2941796 L485.177327,95.8989322 L484.245257,95.8989322 L484.245257,92.226801 C484.245257,91.7102295 484.132961,91.3321648 483.908364,91.0925954 C483.683768,90.853026 483.335649,90.7332431 482.863997,90.7332431 C482.646887,90.7332431 482.439138,90.766932 482.240745,90.8343109 C482.042352,90.9016898 481.868292,91.0027566 481.718561,91.1375144 C481.56883,91.2722722 481.449048,91.4407169 481.359209,91.6428536 C481.26937,91.8449902 481.224452,92.0770696 481.224452,92.3390986 L481.224452,95.8989322 L480.292382,95.8989322 L480.292382,90.0257683 Z" id="ic-date"></path>
        </g>
    </g>
</svg>