<?xml version="1.0" encoding="UTF-8"?>
<svg width="26px" height="30px" viewBox="0 0 26 30" version="1.1" xmlns="http://www.w3.org/2000/svg" xmlns:xlink="http://www.w3.org/1999/xlink">
    <!-- Generator: Sketch 50.2 (55047) - http://www.bohemiancoding.com/sketch -->
    <title>ic-date-2</title>
    <desc>Created with Sketch.</desc>
    <defs></defs>
    <g id="Symbols" stroke="none" stroke-width="1" fill="none" fill-rule="evenodd">
        <g id="ic-date-2" transform="translate(1.000000, 0.000000)">
            <path d="M0.24,14.42 L5.24,9.12 C5.9600036,8.3599962 6.5333312,7.6633365 6.96,7.03 C7.3866688,6.3966635 7.6,5.780003 7.6,5.18 C7.6,4.6999976 7.4733346,4.3133348 7.22,4.02 C6.9666654,3.7266652 6.5866692,3.58 6.08,3.58 C5.5733308,3.58 5.1633349,3.7533316 4.85,4.1 C4.5366651,4.4466684 4.3333338,5.0466624 4.24,5.9 L0.52,5.9 C0.586667,4.1133244 1.1299949,2.7666712 2.15,1.86 C3.1700051,0.9533288 4.546658,0.5 6.28,0.5 C7.1600044,0.5 7.93333,0.6133322 8.6,0.84 C9.26667,1.0666678 9.8266644,1.379998 10.28,1.78 C10.7200022,2.180002 11.0566655,2.6566639 11.29,3.21 C11.5233345,3.7633361 11.64,4.3666634 11.64,5.02 C11.64,5.5133358 11.573334,5.9766645 11.44,6.41 C11.306666,6.8433355 11.1266678,7.259998 10.9,7.66 C10.6599988,8.0733354 10.373335,8.4699981 10.04,8.85 C9.706665,9.2300019 9.340002,9.6133314 8.94,10 L6.94,11.94 L11.74,11.94 L11.74,15 L0.24,15 L0.24,14.42 Z M18.68,15.24 C17.7333286,15.24 16.9133368,15.1200012 16.22,14.88 C15.5266632,14.6399988 14.9533356,14.3066688 14.5,13.88 C14.033331,13.4533312 13.6833345,12.9500029 13.45,12.37 C13.2166655,11.7899971 13.0866668,11.16667 13.06,10.5 L16.78,10.5 C16.8200002,10.7533346 16.8766663,10.979999 16.95,11.18 C17.0233337,11.380001 17.1333326,11.5533326 17.28,11.7 C17.413334,11.8466674 17.5899989,11.9599996 17.81,12.04 C18.0300011,12.1200004 18.306665,12.16 18.64,12.16 C19.240003,12.16 19.6766653,11.9666686 19.95,11.58 C20.2233347,11.1933314 20.36,10.7133362 20.36,10.14 C20.36,9.4999968 20.193335,9.0000018 19.86,8.64 C19.526665,8.2799982 19.0466698,8.1 18.42,8.1 C17.8333304,8.1 17.3533352,8.199999 16.98,8.4 C16.6066648,8.600001 16.3000012,8.8399986 16.06,9.12 L13.62,9.12 L13.92,0.7 L23.56,0.7 L23.56,3.7 L16.88,3.7 L16.8,6.86 C17.066668,6.4733314 17.466664,6.1233349 18,5.81 C18.533336,5.4966651 19.2466622,5.34 20.14,5.34 C20.7933366,5.34 21.386664,5.4466656 21.92,5.66 C22.453336,5.8733344 22.9133314,6.1866646 23.3,6.6 C23.6733352,7.0133354 23.9633323,7.5233303 24.17,8.13 C24.3766677,8.7366697 24.48,9.4266628 24.48,10.2 C24.48,10.9600038 24.346668,11.6499969 24.08,12.27 C23.813332,12.8900031 23.4333358,13.4199978 22.94,13.86 C22.4333308,14.3000022 21.8233369,14.6399988 21.11,14.88 C20.3966631,15.1200012 19.5866712,15.24 18.68,15.24 Z" id="25" stroke="#FFFFFF"></path>
            <path d="M2.072,29.126 C1.6519979,29.126 1.3253345,29.0980003 1.092,29.042 C0.8586655,28.9859997 0.66266746,28.9160004 0.504,28.832 L0.504,27.376 C0.68133422,27.450667 0.86566571,27.5113331 1.057,27.558 C1.24833429,27.6046669 1.49333184,27.628 1.792,27.628 C2.24933562,27.628 2.61333198,27.4973346 2.884,27.236 C3.15466802,26.9746654 3.29,26.5360031 3.29,25.92 L3.29,18.99 L5.166,18.99 L5.166,25.962 C5.166,26.503336 5.09133408,26.9723313 4.942,27.369 C4.79266592,27.7656687 4.58266802,28.0946654 4.312,28.356 C4.04133198,28.6173346 3.71466858,28.8109994 3.332,28.937 C2.94933142,29.0630006 2.52933562,29.126 2.072,29.126 Z M10.416,29.14 C10.0519982,29.14 9.71600153,29.0863339 9.40799999,28.979 C9.09999845,28.8716661 8.83400111,28.7060011 8.60999999,28.482 C8.38599887,28.2579989 8.21100062,27.9710017 8.08499999,27.621 C7.95899936,27.2709982 7.89599999,26.8533358 7.89599999,26.368 L7.89599999,21.678 L9.58999999,21.678 L9.58999999,26.172 C9.58999999,26.7320028 9.70666549,27.1403321 9.93999999,27.397 C10.1733345,27.6536679 10.5373308,27.782 11.032,27.782 C11.2560011,27.782 11.4729989,27.744667 11.683,27.67 C11.893001,27.595333 12.0749992,27.4856674 12.229,27.341 C12.3830008,27.1963326 12.5066662,27.0143344 12.6,26.795 C12.6933338,26.5756656 12.74,26.3213348 12.74,26.032 L12.74,21.678 L14.434,21.678 L14.434,29 L12.74,29 L12.74,27.852 C12.5533324,28.2066684 12.2686686,28.5099987 11.886,28.762 C11.5033314,29.0140013 11.0133363,29.14 10.416,29.14 Z M17.192,21.678 L18.886,21.678 L18.886,22.84 C19.0633342,22.4853316 19.3503313,22.1773346 19.747,21.916 C20.1436686,21.6546654 20.6453303,21.524 21.252,21.524 C21.6160018,21.524 21.9519984,21.5799994 22.26,21.692 C22.5680015,21.8040006 22.8339989,21.9743322 23.058,22.203 C23.2820011,22.4316678 23.454666,22.7279982 23.576,23.092 C23.6973339,23.4560018 23.758,23.8899975 23.758,24.394 L23.758,29 L22.064,29 L22.064,24.548 C22.064,23.9879972 21.9473345,23.5796679 21.714,23.323 C21.4806655,23.066332 21.1120025,22.938 20.608,22.938 C20.1319976,22.938 19.7260017,23.0849985 19.39,23.379 C19.0539983,23.6730015 18.886,24.1093304 18.886,24.688 L18.886,29 L17.192,29 L17.192,21.678 Z" id="Jun" fill="#FFFFFF"></path>
        </g>
    </g>
</svg>