<?xml version="1.0" encoding="UTF-8"?>
<svg width="43px" height="30px" viewBox="0 0 43 30" version="1.1" xmlns="http://www.w3.org/2000/svg" xmlns:xlink="http://www.w3.org/1999/xlink">
    <!-- Generator: Sketch 49.3 (51167) - http://www.bohemiancoding.com/sketch -->
    <title>ic-graph</title>
    <desc>Created with Sketch.</desc>
    <defs></defs>
    <g id="Symbols" stroke="none" stroke-width="1" fill="none" fill-rule="evenodd">
        <g id="Home---color---black" transform="translate(-568.000000, -67.000000)" fill-rule="nonzero" stroke="#FFFFFF">
            <path d="M609.292683,94.6341463 L609.292683,68 L601.097561,68 L601.097561,94.6341463 L599.04878,94.6341463 L599.04878,73.4634146 L590.853659,73.4634146 L590.853659,94.6341463 L588.804878,94.6341463 L588.804878,78.9268293 L580.609756,78.9268293 L580.609756,94.6341463 L578.560976,94.6341463 L578.560976,85.0731707 L570.365854,85.0731707 L570.365854,94.6341463 L569.682927,94.6341463 C569.305951,94.6341463 569,94.9394146 569,95.3170732 C569,95.6947317 569.305951,96 569.682927,96 L570.365854,96 L578.560976,96 L580.609756,96 L588.804878,96 L590.853659,96 L599.04878,96 L601.097561,96 L609.292683,96 C609.669659,96 609.97561,95.6947317 609.97561,95.3170732 C609.97561,94.9394146 609.669659,94.6341463 609.292683,94.6341463 Z" id="ic-graph"></path>
        </g>
    </g>
</svg>