<?xml version="1.0" encoding="UTF-8"?>
<svg width="26px" height="30px" viewBox="0 0 26 30" version="1.1" xmlns="http://www.w3.org/2000/svg" xmlns:xlink="http://www.w3.org/1999/xlink">
    <!-- Generator: Sketch 49.3 (51167) - http://www.bohemiancoding.com/sketch -->
    <title>ic-music</title>
    <desc>Created with Sketch.</desc>
    <defs></defs>
    <g id="Symbols" stroke="none" stroke-width="1" fill="none" fill-rule="evenodd">
        <g id="Home---color---black" transform="translate(-135.000000, -67.000000)" fill-rule="nonzero" stroke="#FFFFFF">
            <path d="M144.25001,78.1500001 L144.25001,91.7967539 L144.24986,91.7966629 C144.26279,93.0446632 143.437735,94.4518907 141.729013,95.3361552 C139.355891,96.5642457 136.860397,95.9648969 135.946982,94.5468194 C135.033568,93.1287419 135.702234,90.8919357 138.075354,89.6638451 C139.671333,88.8379256 141.322662,88.8385346 142.510879,89.3588446 L142.510879,78.5000001 L142.510879,71.5 L159.902184,68 L159.902184,69.75 L159.902184,75 L159.902184,90.0508122 L159.902074,90.0508559 C159.913111,91.2978237 159.087991,92.7028847 157.381187,93.5861552 C155.008065,94.8142457 152.512571,94.2148969 151.599156,92.7968194 C150.685742,91.3787419 151.354408,89.1419356 153.727528,87.9138451 C155.323507,87.0879256 156.974836,87.0885346 158.163053,87.6088446 L158.163053,75.3500001 L144.25001,78.1500001 Z" id="ic-music"></path>
        </g>
    </g>
</svg>