<?xml version="1.0" encoding="UTF-8"?>
<svg width="42px" height="45px" viewBox="0 0 42 45" version="1.1" xmlns="http://www.w3.org/2000/svg" xmlns:xlink="http://www.w3.org/1999/xlink">
    <!-- Generator: Sketch 49.2 (51160) - http://www.bohemiancoding.com/sketch -->
    <title>26 Jun</title>
    <desc>Created with Sketch.</desc>
    <defs></defs>
    <g id="Middenconsole-display" stroke="none" stroke-width="1" fill="none" fill-rule="evenodd">
        <g id="Home-kleur-1" transform="translate(-579.000000, -148.000000)" fill="#373E43">
            <path d="M579,171.104395 L587.298992,162.307463 C588.494053,161.04601 589.445661,159.889695 590.153846,158.838484 C590.86203,157.787273 591.216117,156.763741 591.216117,155.767857 C591.216117,154.97115 591.005878,154.329367 590.585393,153.842491 C590.164909,153.355614 589.534192,153.112179 588.693223,153.112179 C587.852254,153.112179 587.171744,153.399875 586.651671,153.975274 C586.131598,154.550674 585.794109,155.546543 585.639194,156.962912 L579.464744,156.962912 C579.575397,153.99739 580.477212,151.762217 582.170215,150.257326 C583.863218,148.752434 586.148184,148 589.025183,148 C590.485813,148 591.769377,148.188109 592.875915,148.564331 C593.982453,148.940554 594.911931,149.460619 595.664377,150.124542 C596.394692,150.788465 596.953485,151.579627 597.340773,152.498054 C597.728061,153.41648 597.921703,154.417882 597.921703,155.502289 C597.921703,156.321127 597.81105,157.090159 597.589743,157.809409 C597.368435,158.528659 597.069675,159.220234 596.693452,159.884157 C596.295098,160.57021 595.819294,161.228591 595.266025,161.859317 C594.712756,162.490044 594.104169,163.126293 593.440247,163.768085 L590.12065,166.988094 L598.087682,166.988094 L598.087682,172.067078 L579,172.067078 L579,171.104395 Z M611.067306,172.465429 C609.164061,172.465429 607.554073,172.177734 606.237293,171.602334 C604.920513,171.026935 603.841655,170.219174 603.000686,169.179028 C602.159717,168.161014 601.55113,166.94384 601.174908,165.527472 C600.798685,164.111103 600.610576,162.550908 600.610576,160.84684 L600.610576,160.216117 C600.610576,158.290741 600.881674,156.5701 601.423877,155.054143 C601.966081,153.538187 602.712983,152.249089 603.664605,151.186813 C604.616228,150.146667 605.744879,149.355505 607.050594,148.813301 C608.356309,148.271098 609.761591,148 611.266482,148 C613.944304,148 616.052227,148.580924 617.590314,149.742788 C619.128402,150.904653 620.019152,152.658489 620.26259,155.00435 L614.021748,155.00435 C613.911094,154.42895 613.673192,153.953146 613.308034,153.576923 C612.942877,153.2007 612.339823,153.012591 611.498854,153.012591 C610.193139,153.012591 609.191738,153.554787 608.494619,154.639194 C607.7975,155.723601 607.41575,157.272731 607.349358,159.28663 C607.880496,158.467792 608.572072,157.803879 609.424106,157.294871 C610.27614,156.785864 611.432455,156.531364 612.893085,156.531364 C613.977492,156.531364 614.995491,156.69181 615.947114,157.012706 C616.898736,157.333602 617.728627,157.814938 618.436812,158.45673 C619.144996,159.098522 619.709322,159.895218 620.129806,160.84684 C620.55029,161.798463 620.760529,162.893919 620.760529,164.133241 C620.760529,165.394694 620.539225,166.534411 620.09661,167.552426 C619.653995,168.570441 619.023278,169.444593 618.20444,170.174908 C617.363471,170.905222 616.339939,171.469548 615.133813,171.867902 C613.927686,172.266256 612.572198,172.465429 611.067306,172.465429 Z M611.000914,167.652014 C611.952537,167.652014 612.716037,167.331123 613.291436,166.689331 C613.866836,166.047539 614.154532,165.217648 614.154532,164.199633 C614.154532,163.203749 613.877901,162.384923 613.324632,161.743131 C612.771363,161.101339 611.996798,160.780448 611.000914,160.780448 C610.00503,160.780448 609.2194,161.101339 608.644001,161.743131 C608.068601,162.384923 607.780905,163.181619 607.780905,164.133241 C607.780905,165.195517 608.068601,166.047539 608.644001,166.689331 C609.2194,167.331123 610.00503,167.652014 611.000914,167.652014 Z M581.151099,192.144 C580.667173,192.144 580.292431,192.111542 580.026862,192.046625 C579.761293,191.981708 579.54589,191.902039 579.380647,191.807614 L579.380647,190.532889 C579.616709,190.627314 579.861619,190.709934 580.115385,190.780752 C580.369151,190.851571 580.684878,190.886979 581.062576,190.886979 C581.699942,190.886979 582.201565,190.698133 582.56746,190.320435 C582.933355,189.942737 583.1163,189.328986 583.1163,188.479165 L583.1163,179.32593 L584.656593,179.32593 L584.656593,188.549983 C584.656593,189.187349 584.565121,189.730282 584.382173,190.178799 C584.199226,190.627315 583.948414,190.999106 583.629731,191.294183 C583.311048,191.58926 582.939257,191.804663 582.514347,191.940398 C582.089436,192.076133 581.635025,192.144 581.151099,192.144 Z M596.509767,192.144 C596.049448,192.144 595.621593,192.079084 595.22619,191.94925 C594.830787,191.819417 594.491454,191.609915 594.20818,191.32074 C593.924906,191.031565 593.700651,190.662724 593.535408,190.214208 C593.370165,189.765691 593.287545,189.222758 593.287545,188.585392 L593.287545,182.725197 L594.75702,182.725197 L594.75702,188.514574 C594.75702,189.328986 594.931113,189.925032 595.279303,190.30273 C595.627494,190.680428 596.167476,190.869275 596.899267,190.869275 C597.229753,190.869275 597.548431,190.816162 597.855311,190.709934 C598.16219,190.603706 598.433657,190.444367 598.669718,190.231912 C598.90578,190.019457 599.094626,189.753892 599.236263,189.435209 C599.3779,189.116526 599.448717,188.750636 599.448717,188.337529 L599.448717,182.725197 L600.918192,182.725197 L600.918192,191.984659 L599.448717,191.984659 L599.448717,190.515184 C599.236262,190.951898 598.879224,191.332541 598.377594,191.657126 C597.875963,191.98171 597.253361,192.144 596.509767,192.144 Z M609.637667,182.725197 L611.107142,182.725197 L611.107142,184.194672 C611.319597,183.757958 611.676634,183.377315 612.178265,183.052731 C612.679895,182.728146 613.314301,182.565856 614.0815,182.565856 C614.553623,182.565856 614.99033,182.633723 615.391635,182.769458 C615.792939,182.905194 616.138174,183.123547 616.427349,183.424525 C616.716524,183.725504 616.940779,184.112048 617.100121,184.584171 C617.259462,185.056294 617.339131,185.628734 617.339131,186.301509 L617.339131,191.984659 L615.869657,191.984659 L615.869657,186.195282 C615.869657,185.38087 615.692613,184.784824 615.338521,184.407126 C614.984429,184.029428 614.435594,183.840582 613.692001,183.840582 C613.349712,183.840582 613.022182,183.893695 612.7094,183.999922 C612.396619,184.10615 612.122202,184.265489 611.88614,184.477944 C611.650079,184.690399 611.461233,184.955965 611.319596,185.274647 C611.177959,185.59333 611.107142,185.95922 611.107142,186.372327 L611.107142,191.984659 L609.637667,191.984659 L609.637667,182.725197 Z" id="26-Jun"></path>
        </g>
    </g>
</svg>