<?xml version="1.0" encoding="UTF-8"?>
<svg width="18px" height="18px" viewBox="0 0 18 18" version="1.1" xmlns="http://www.w3.org/2000/svg" xmlns:xlink="http://www.w3.org/1999/xlink">
    <!-- Generator: Sketch 49.2 (51160) - http://www.bohemiancoding.com/sketch -->
    <title>call - material</title>
    <desc>Created with Sketch.</desc>
    <defs></defs>
    <g id="Symbols" stroke="none" stroke-width="1" fill="none" fill-rule="evenodd">
        <g id="contactpersoon---DONKER---grijs" transform="translate(-180.000000, -6.000000)" fill="#373E43">
            <g id="Group-4">
                <path d="M183.6,13.776 C184.336004,15.184007 185.271994,16.4559943 186.408,17.592 C187.544006,18.7280057 188.815993,19.6639963 190.224,20.4 L192.432,18.192 C192.560001,18.0479993 192.719999,17.9520002 192.912,17.904 C193.104001,17.8559998 193.287999,17.8719996 193.464,17.952 C194.520005,18.3200018 195.703993,18.504 197.016,18.504 C197.288001,18.504 197.519999,18.599999 197.712,18.792 C197.904001,18.984001 198,19.2159986 198,19.488 L198,23.016 C198,23.2880014 197.904001,23.519999 197.712,23.712 C197.519999,23.904001 197.288001,24 197.016,24 C194.711988,24 192.504011,23.5520045 190.392,22.656 C188.35999,21.7919957 186.560008,20.5760078 184.992,19.008 C183.423992,17.4399922 182.208004,15.6400102 181.344,13.608 C180.447996,11.4959894 180,9.28801152 180,6.984 C180,6.71199864 180.095999,6.48000096 180.288,6.288 C180.480001,6.09599904 180.711999,6 180.984,6 L184.512,6 C184.784001,6 185.015999,6.09599904 185.208,6.288 C185.400001,6.48000096 185.496,6.71199864 185.496,6.984 C185.496,8.29600656 185.679998,9.47999472 186.048,10.536 C186.096,10.7120009 186.104,10.895999 186.072,11.088 C186.04,11.280001 185.952001,11.4399994 185.808,11.568 L183.6,13.776 Z" id="call---material"></path>
            </g>
        </g>
    </g>
</svg>