<?xml version="1.0" encoding="UTF-8"?>
<svg width="20px" height="20px" viewBox="0 0 20 20" version="1.1" xmlns="http://www.w3.org/2000/svg" xmlns:xlink="http://www.w3.org/1999/xlink">
    <!-- Generator: Sketch 49.1 (51147) - http://www.bohemiancoding.com/sketch -->
    <title></title>
    <desc>Created with Sketch.</desc>
    <defs></defs>
    <g id="Middenconsole-display" stroke="none" stroke-width="1" fill="none" fill-rule="evenodd">
        <g id="Home-kleur-1" transform="translate(-100.000000, -225.000000)" fill="#979797">
            <g id="Group-4" transform="translate(85.000000, 209.000000)">
                <g id="Group-3" transform="translate(13.000000, 0.000000)">
                    <path d="M21.8242188,25.6875 C21.8763023,25.7265627 21.9121093,25.7721352 21.9316406,25.8242188 C21.951172,25.8763023 21.9609375,25.9348955 21.9609375,26 C21.9609375,26.0520836 21.951172,26.1074216 21.9316406,26.1660156 C21.9121093,26.2246097 21.8763023,26.2734373 21.8242188,26.3125 L21.6484375,26.4882812 L19.1679688,28.734375 C19.0768225,28.8255213 18.9661465,28.8710938 18.8359375,28.8710938 C18.7057285,28.8710938 18.5950525,28.8255213 18.5039062,28.734375 L18.3867188,28.578125 C18.2955725,28.4869787 18.2597655,28.3795579 18.2792969,28.2558594 C18.2988282,28.1321608 18.3541662,28.0312504 18.4453125,27.953125 L19.9492188,26.6054688 L12.6640625,26.6054688 L12.6640625,33.9101562 L14.0117188,32.40625 C14.102865,32.3151037 14.2070307,32.2597657 14.3242188,32.2402344 C14.4414068,32.220703 14.5455725,32.25651 14.6367188,32.3476562 L14.7929688,32.4648438 C14.884115,32.55599 14.9296875,32.666666 14.9296875,32.796875 C14.9296875,32.927084 14.884115,33.03776 14.7929688,33.1289062 L12.4882813,35.6484375 L12.4882813,35.6679688 L12.46875,35.6679688 L12.3125,35.8242188 C12.2734373,35.8763023 12.2278648,35.9121093 12.1757813,35.9316406 C12.1236977,35.951172 12.0651045,35.9609375 12,35.9609375 C11.9479164,35.9609375 11.8925784,35.951172 11.8339844,35.9316406 C11.7753903,35.9121093 11.7265627,35.8763023 11.6875,35.8242188 L11.5117188,35.6484375 L9.265625,33.1679688 C9.17447871,33.0768225 9.12890625,32.9661465 9.12890625,32.8359375 C9.12890625,32.7057285 9.17447871,32.5950525 9.265625,32.5039062 L9.421875,32.3867188 C9.51302129,32.2955725 9.62044209,32.2597655 9.74414062,32.2792969 C9.86783916,32.2988282 9.96874961,32.3541662 10.046875,32.4453125 L11.3945312,33.9492188 L11.3945312,26.6054688 L3.9921875,26.6054688 L5.515625,27.953125 C5.60677129,28.0312504 5.66210928,28.1321608 5.68164062,28.2558594 C5.70117197,28.3795579 5.66536504,28.4869787 5.57421875,28.578125 L5.45703125,28.734375 C5.36588496,28.8255213 5.25520898,28.8710938 5.125,28.8710938 C4.99479102,28.8710938 4.88411504,28.8255213 4.79296875,28.734375 L2.3125,26.4882812 L2.13671875,26.3125 C2.08463516,26.2734373 2.04882822,26.2246097 2.02929688,26.1660156 C2.00976553,26.1074216 2,26.0520836 2,26 C2,25.9348955 2.00976553,25.8763023 2.02929688,25.8242188 C2.04882822,25.7721352 2.08463516,25.7265627 2.13671875,25.6875 L2.15625,25.6484375 C2.1822918,25.5963539 2.21809873,25.5507814 2.26367188,25.5117188 C2.30924502,25.4726561 2.35807266,25.4401043 2.41015625,25.4140625 L4.83203125,23.2070312 C4.92317754,23.115885 5.03385352,23.0703125 5.1640625,23.0703125 C5.29427148,23.0703125 5.40494746,23.115885 5.49609375,23.2070312 L5.61328125,23.3632812 C5.70442754,23.4544275 5.74023447,23.5585932 5.72070312,23.6757812 C5.70117178,23.7929693 5.64583379,23.897135 5.5546875,23.9882812 L4.05078125,25.3359375 L11.3945312,25.3359375 L11.3945312,18.0117188 L10.046875,19.515625 C9.96874961,19.6067713 9.86783916,19.6621093 9.74414062,19.6816406 C9.62044209,19.701172 9.51302129,19.665365 9.421875,19.5742188 L9.265625,19.4570312 C9.17447871,19.365885 9.12890625,19.255209 9.12890625,19.125 C9.12890625,18.994791 9.17447871,18.884115 9.265625,18.7929688 L11.5117188,16.3125 L11.6875,16.1367188 C11.7265627,16.0846352 11.7753903,16.0488282 11.8339844,16.0292969 C11.8925784,16.0097655 11.9479164,16 12,16 C12.0651045,16 12.1236977,16.0097655 12.1757813,16.0292969 C12.2278648,16.0488282 12.2734373,16.0846352 12.3125,16.1367188 L12.3515625,16.15625 C12.4036461,16.1822918 12.4492186,16.2180987 12.4882813,16.2636719 C12.5273439,16.309245 12.5598957,16.3580727 12.5859375,16.4101562 L14.7929688,18.8320312 C14.884115,18.9231775 14.9296875,19.0338535 14.9296875,19.1640625 C14.9296875,19.2942715 14.884115,19.4049475 14.7929688,19.4960938 L14.6367188,19.6132812 C14.5455725,19.7044275 14.4414068,19.7402345 14.3242188,19.7207031 C14.2070307,19.7011718 14.102865,19.6458338 14.0117188,19.5546875 L12.6445313,18.0507812 L12.6445313,25.3554688 L19.9101562,25.3554688 L18.40625,23.9882812 C18.3151037,23.897135 18.2597657,23.7929693 18.2402344,23.6757812 C18.220703,23.5585932 18.25651,23.4544275 18.3476562,23.3632812 L18.4648438,23.2070312 C18.55599,23.115885 18.666666,23.0703125 18.796875,23.0703125 C18.927084,23.0703125 19.03776,23.115885 19.1289062,23.2070312 L21.6484375,25.5117188 L21.6679688,25.5117188 L21.6679688,25.53125 L21.8242188,25.6875 Z" id=""></path>
                </g>
            </g>
        </g>
    </g>
</svg>