<?xml version="1.0" encoding="UTF-8"?>
<svg width="31px" height="38px" viewBox="0 0 31 38" version="1.1" xmlns="http://www.w3.org/2000/svg" xmlns:xlink="http://www.w3.org/1999/xlink">
    <!-- Generator: Sketch 49.3 (51167) - http://www.bohemiancoding.com/sketch -->
    <title>ic-heat</title>
    <desc>Created with Sketch.</desc>
    <defs>
        <filter x="-30.4%" y="-16.7%" width="160.9%" height="146.7%" filterUnits="objectBoundingBox" id="filter-1">
            <feOffset dx="0" dy="2" in="SourceAlpha" result="shadowOffsetOuter1"></feOffset>
            <feGaussianBlur stdDeviation="2" in="shadowOffsetOuter1" result="shadowBlurOuter1"></feGaussianBlur>
            <feColorMatrix values="0 0 0 0 0   0 0 0 0 0   0 0 0 0 0  0 0 0 0.15 0" type="matrix" in="shadowBlurOuter1" result="shadowMatrixOuter1"></feColorMatrix>
            <feMerge>
                <feMergeNode in="shadowMatrixOuter1"></feMergeNode>
                <feMergeNode in="SourceGraphic"></feMergeNode>
            </feMerge>
        </filter>
    </defs>
    <g id="Symbols" stroke="none" stroke-width="1" fill="none" fill-rule="evenodd">
        <g id="Home---color---black" transform="translate(-88.000000, -810.000000)" fill="#FFFFFF" fill-rule="nonzero">
            <g id="ic-heat" filter="url(#filter-1)" transform="translate(92.000000, 812.000000)">
                <path d="M6.36924202,0.917109375 C5.83929763,0.334960938 5.05599386,0 4.220296,0 L3.77937305,0 C2.24690657,0 1,1.12453906 1,2.50649219 L1,4.49345313 C1,5.87551562 2.24690657,7 3.77937305,7 C5.09959496,7 6.24607952,6.15234375 6.50507855,4.98454688 L6.94533444,2.99867969 C7.1095511,2.25925 6.89985346,1.50046094 6.36924202,0.917109375 Z M5.67696085,2.76964844 L5.23670496,4.75551563 C5.09838213,5.37988281 4.48499531,5.83329688 3.77943369,5.83329688 C2.96016963,5.83329688 2.29372166,5.23173438 2.29372166,4.49345313 L2.29372166,2.50649219 L2.29366102,2.50649219 C2.29366102,1.76821094 2.96010899,1.16664844 3.77937305,1.16664844 L4.220296,1.16664844 C4.66691923,1.16664844 5.0857081,1.34553125 5.3693275,1.6576875 C5.65234048,1.96875 5.76476946,2.3743125 5.67696085,2.76964844 Z" id="Shape"></path>
                <path d="M22.1291813,20.5518894 C21.5770059,20.0400922 20.8301706,19.7848608 20.0883665,19.8556438 L19.7616972,19.88312 C20.0794421,19.0784861 20.4034161,18.2366713 20.4373768,16.6747134 L20.6311982,16.8709893 C20.7559602,16.9973312 20.9194746,17.0605325 21.082929,17.0605325 C21.2463835,17.0605325 21.4098379,16.9973312 21.5346599,16.8709893 C21.7842439,16.6182447 21.7842439,16.2088312 21.5346599,15.9561473 L20.2569121,14.6622187 C20.0073281,14.4094741 19.6030344,14.4094741 19.3535103,14.6622187 L18.0757624,15.9561473 C17.8261784,16.2088919 17.8261784,16.6183053 18.0757624,16.8709893 C18.3253464,17.1237339 18.7296401,17.1237339 18.9791642,16.8709893 L19.152142,16.6958209 C19.1151866,17.9845333 18.8563188,18.6913932 18.5730138,19.4083217 C18.4968867,19.601019 18.4206998,19.796567 18.3475676,20.0018803 L15.1423869,20.2711834 C15.1902433,20.143325 15.2375606,20.0149815 15.2875134,19.8884576 C15.6059171,19.082004 15.9312089,18.2401286 15.9652893,16.6746528 L16.1591107,16.8709286 C16.2838728,16.9972706 16.4473871,17.0604719 16.6108416,17.0604719 C16.774296,17.0604719 16.9377505,16.9972706 17.0625724,16.8709286 C17.3121564,16.618184 17.3121564,16.2087705 17.0625724,15.9560866 L15.7848246,14.6621581 C15.5352406,14.4094135 15.1309469,14.4094135 14.8814228,14.6621581 L13.603675,15.9560866 C13.354091,16.2088312 13.354091,16.6182447 13.603675,16.8709286 C13.853259,17.1236732 14.2575527,17.1236732 14.5070768,16.8709286 L14.6800546,16.6957603 C14.6430991,17.9844726 14.3842314,18.6913326 14.1009263,19.4082611 C13.9788595,19.7174744 13.8556548,20.031722 13.7476634,20.3883666 L10.5393083,20.6579123 C10.6250186,20.3909747 10.7171975,20.1371384 10.8154858,19.8884576 C11.1338896,19.082004 11.4591813,18.2401286 11.4932618,16.6746528 L11.6870832,16.8709286 C11.8118452,16.9972706 11.9753596,17.0604719 12.138814,17.0604719 C12.3022685,17.0604719 12.4657229,16.9972706 12.5905449,16.8709286 C12.8401289,16.618184 12.8401289,16.2087705 12.5905449,15.9560866 L11.312797,14.6621581 C11.063213,14.4094135 10.6589193,14.4094135 10.4093952,14.6621581 L9.13164741,15.9560866 C8.88206342,16.2088312 8.88206342,16.6182447 9.13164741,16.8709286 C9.3812314,17.1236732 9.78552511,17.1236732 10.0350492,16.8709286 L10.208027,16.6957603 C10.1710716,17.9844726 9.91220381,18.6913326 9.62889873,19.4082611 C9.46496512,19.8234973 9.29887527,20.2472857 9.17093877,20.772912 L7.57622466,20.906957 L6.45941568,11.0418512 C6.42138212,10.7764906 6.339026,10.504822 6.23666482,10.2887123 C5.90538355,9.20197732 5.02564042,8.36295263 3.91943292,8.09255777 C3.40780671,7.97125008 3.00225519,7.96494208 2.44822306,8.09886577 C1.05877037,8.43749621 0.0730124504,9.64808637 0.013117085,11.1884515 C0.00563016435,11.2313944 0,11.2832535 0,11.3223752 C0,13.8938558 0.312593912,16.4640626 0.928977117,18.9597258 L2.1168819,23.7728513 C2.45253553,25.1350155 3.35719513,26.2760963 4.59756825,26.90538 C5.25330271,27.2364287 5.98642198,27.4120822 6.7188824,27.4120822 L9.98880998,27.4120822 C10.1248324,27.915024 10.2221623,28.5062777 10.2221623,29.3530054 C10.2221623,29.7106205 10.5079231,30 10.8610662,30 C11.2142093,30 11.4999701,29.7106205 11.4999701,29.3530054 C11.4999701,28.5477649 11.4237831,27.9314005 11.3106408,27.4120822 L14.4610771,27.4120822 C14.5970995,27.915024 14.6944295,28.5062777 14.6944295,29.3530054 C14.6944295,29.7106205 14.9801903,30 15.3333333,30 C15.6864764,30 15.9722372,29.7106205 15.9722372,29.3530054 C15.9722372,28.5477649 15.8960503,27.9314005 15.7829079,27.4120822 L17.3722914,27.4120822 C17.8890686,27.4120822 18.387997,27.3277127 18.8699151,27.1970037 C19.0392992,27.7444047 19.1666367,28.3815734 19.1666367,29.3530054 C19.1666367,29.7106205 19.4523975,30 19.8055406,30 C20.1586837,30 20.4444444,29.7106205 20.4444444,29.3530054 C20.4444444,28.1653424 20.2815291,27.3814521 20.072075,26.7307576 C21.3605441,26.0423364 22.3794241,24.8742039 22.8627198,23.4051677 C22.9538207,23.1296779 23,22.8415721 23,22.5497058 C22.9995208,21.7915327 22.6825546,21.0636865 22.1291813,20.5518894 Z M6.71858293,26.118093 L6.71858293,26.1181537 C6.18323815,26.1181537 5.64735432,25.990538 5.16879035,25.7479226 C4.26227399,25.2879845 3.60150832,24.4539941 3.35569774,23.4595136 L2.16779296,18.6463881 C1.57692518,16.2518348 1.27744835,13.7877722 1.26499012,11.446291 C1.27499264,11.3995269 1.27744835,11.2845272 1.27744835,11.2377631 C1.27744835,10.3405714 1.88137332,9.56723479 2.75985865,9.35367259 C2.91959959,9.31576394 3.06185108,9.29677928 3.19410005,9.29677928 C3.32634901,9.29677928 3.46860051,9.31576394 3.64205748,9.35743313 C4.29030502,9.51537575 4.81624623,10.0183175 5.04396841,10.7474374 C5.12446778,10.9268515 5.17376166,11.083581 5.19185006,11.2073755 L6.309258,21.0724813 C6.40658797,21.7561109 7.02237222,22.2463759 7.68373685,22.1781404 L8.97561998,22.0714502 C8.9572321,22.3223752 8.94405512,22.5864621 8.94405512,22.8832413 C8.94405512,24.4635774 9.23041487,25.3342634 9.53468332,26.1181537 L6.71858293,26.118093 Z M10.9089825,26.1181537 C10.877777,26.037666 10.8464517,25.9573603 10.8151863,25.8780858 C10.5100793,25.1060229 10.2218629,24.3756293 10.2218629,22.883302 C10.2218629,22.5367259 10.2404903,22.2391581 10.268162,21.9646995 L13.4795119,21.6993389 C13.4397414,22.0470674 13.4162624,22.4361012 13.4162624,22.883302 C13.4162624,24.463638 13.7026221,25.334324 14.0068906,26.1181537 L10.9089825,26.1181537 Z M17.3718721,26.1181537 L15.3811897,26.1181537 C15.3499842,26.037666 15.318659,25.9573603 15.2873936,25.8780858 C14.9822866,25.1060229 14.6940701,24.3756293 14.6940701,22.883302 C14.6940701,22.3646509 14.7373744,21.9589373 14.7955328,21.5907078 L18.0046067,21.3255899 C17.933451,21.7629648 17.8884696,22.2673622 17.8884696,22.883302 C17.8884696,24.3705344 18.1424859,25.228847 18.4257909,25.9782253 C18.084567,26.061321 17.7344187,26.1181537 17.3718721,26.1181537 Z M21.6506173,22.9957542 C21.2922633,24.0849154 20.5517769,24.9554194 19.6162712,25.5003943 C19.3711195,24.846849 19.1662175,24.1342876 19.1662175,22.883302 C19.1662175,22.1851762 19.2331206,21.6628859 19.3314688,21.2159277 L20.195699,21.1445381 C20.1982146,21.1445381 20.2000714,21.1445381 20.2019281,21.1445381 C20.5931047,21.1116637 20.9749377,21.2367926 21.2675865,21.5071875 C21.5608342,21.7775823 21.721773,22.1478741 21.721773,22.5497058 C21.721773,22.7026142 21.6980544,22.8517013 21.6506173,22.9957542 Z" id="Shape"></path>
            </g>
        </g>
    </g>
</svg>