<?xml version="1.0" encoding="UTF-8"?>
<svg width="44px" height="49px" viewBox="0 0 44 49" version="1.1" xmlns="http://www.w3.org/2000/svg" xmlns:xlink="http://www.w3.org/1999/xlink">
    <!-- Generator: Sketch 49.1 (51147) - http://www.bohemiancoding.com/sketch -->
    <title>Rectangle 233</title>
    <desc>Created with Sketch.</desc>
    <defs>
        <filter x="-19.4%" y="-12.2%" width="138.9%" height="134.1%" filterUnits="objectBoundingBox" id="filter-1">
            <feOffset dx="0" dy="2" in="SourceAlpha" result="shadowOffsetOuter1"></feOffset>
            <feGaussianBlur stdDeviation="2" in="shadowOffsetOuter1" result="shadowBlurOuter1"></feGaussianBlur>
            <feColorMatrix values="0 0 0 0 0   0 0 0 0 0   0 0 0 0 0  0 0 0 0.35 0" type="matrix" in="shadowBlurOuter1" result="shadowMatrixOuter1"></feColorMatrix>
            <feMerge>
                <feMergeNode in="shadowMatrixOuter1"></feMergeNode>
                <feMergeNode in="SourceGraphic"></feMergeNode>
            </feMerge>
        </filter>
    </defs>
    <g id="Middenconsole-display" stroke="none" stroke-width="1" fill="none" fill-rule="evenodd">
        <g id="Home-kleur-1" transform="translate(-199.000000, -145.000000)" fill="#373E43" fill-rule="nonzero">
            <g id="Group-5" transform="translate(89.000000, 143.000000)">
                <g id="if_083_Music_183211" filter="url(#filter-1)" transform="translate(114.000000, 4.000000)">
                    <path d="M12.732919,14.8625001 L12.732919,34.8452468 L12.7326999,34.8451136 C12.7516338,36.6725425 11.5435166,38.7331256 9.04145971,40.0279415 C5.5665314,41.8262169 1.91241527,40.9485991 0.574913759,38.8721285 C-0.762585203,36.7956578 0.216533008,33.5203344 3.69145877,31.722059 C6.02842824,30.5126768 8.44644529,30.5135686 10.1863351,31.2754511 L10.1863351,15.3750001 L10.1863351,5.12500004 L35.6521739,0 L35.6521739,2.56250002 L35.6521739,10.2500001 L35.6521739,32.2886892 L35.6520135,32.2887533 C35.6681741,34.1146704 34.4599627,36.1720811 31.9607147,37.4654415 C28.4857864,39.2637169 24.8316702,38.3860991 23.4941687,36.3096284 C22.1566698,34.2331578 23.135788,30.9578343 26.6107137,29.1595589 C28.9476832,27.9501768 31.3657003,27.9510686 33.10559,28.7129511 L33.10559,10.7625001 L12.732919,14.8625001 Z" id="Rectangle-233"></path>
                </g>
            </g>
        </g>
    </g>
</svg>