<?xml version="1.0" encoding="UTF-8"?>
<svg width="48px" height="48px" viewBox="0 0 48 48" version="1.1" xmlns="http://www.w3.org/2000/svg" xmlns:xlink="http://www.w3.org/1999/xlink">
    <!-- Generator: Sketch 49.1 (51147) - http://www.bohemiancoding.com/sketch -->
    <title>Shape</title>
    <desc>Created with Sketch.</desc>
    <defs>
        <path d="M23.3563333,23.3563333 C19.348963,27.3637037 14.7083704,31.1944198 12.8745062,29.3600494 C10.2479753,26.7340247 8.6287284,24.4466296 2.83962963,29.0993704 C-2.94997531,33.7541358 1.49675309,36.8554568 4.04077778,39.4004938 C6.97658025,42.3357901 17.9205432,39.5548765 28.737963,28.7389753 C39.5538642,17.9205432 42.3368025,6.97658025 39.3989753,4.03976543 C36.8544444,1.49523457 33.7531235,-2.94997531 29.1003827,2.8401358 C24.4466296,8.62771605 26.7330123,10.2474691 29.3600494,12.874 C31.1934074,14.7083704 27.3637037,19.3484568 23.3563333,23.3563333 Z" id="path-1"></path>
        <filter x="-17.3%" y="-12.3%" width="134.6%" height="134.6%" filterUnits="objectBoundingBox" id="filter-2">
            <feOffset dx="0" dy="2" in="SourceAlpha" result="shadowOffsetOuter1"></feOffset>
            <feGaussianBlur stdDeviation="2" in="shadowOffsetOuter1" result="shadowBlurOuter1"></feGaussianBlur>
            <feColorMatrix values="0 0 0 0 0   0 0 0 0 0   0 0 0 0 0  0 0 0 0.35 0" type="matrix" in="shadowBlurOuter1"></feColorMatrix>
        </filter>
    </defs>
    <g id="Middenconsole-display" stroke="none" stroke-width="1" fill="none" fill-rule="evenodd">
        <g id="Home-kleur-1" transform="translate(-415.000000, -145.000000)" fill-rule="nonzero">
            <g id="Group-5" transform="translate(89.000000, 143.000000)">
                <g id="if_phone8_216688" transform="translate(330.000000, 4.000000)">
                    <g id="Shape">
                        <use fill="black" fill-opacity="1" filter="url(#filter-2)" xlink:href="#path-1"></use>
                        <use fill="#373E43" fill-rule="evenodd" xlink:href="#path-1"></use>
                    </g>
                </g>
            </g>
        </g>
    </g>
</svg>